# xmcd
#
# Track frame offsets: 
#        150
#        5328
#        25315
#        42130
#        61468
#        62813
#        76055
#        95238
#        115038
#        134638
#
# Disc length: 2036 seconds
#
# Revision: 0
# Processed by: cddbd v1.5.2PL0 Copyright (c) Steve Scherf et al.
# Submitted via: ExactAudioCopy v0.99pb5
#
DISCID=8107f20a
DTITLE=Jayo Felony - Underground
DYEAR=1999
DGENRE=Hip-Hop
TTITLE0=Cop Killer
TTITLE1=Whatcha Provin
TTITLE2=Du Lo Gang
TTITLE3=All Day and All Night
TTITLE4=You and Me
TTITLE5=Mandingo
TTITLE6=True Stories
TTITLE7=My Name In Your Mouth ft. Money Green and Kam
TTITLE8=Flow 4 Ya
TTITLE9=That's On Me
EXTD=
EXTT0=
EXTT1=
EXTT2=
EXTT3=
EXTT4=
EXTT5=
EXTT6=
EXTT7=
EXTT8=
EXTT9=
PLAYORDER=
